<?xml version="1.0" encoding="utf-8"?>
<!-- Generator: Adobe Illustrator 21.0.0, SVG Export Plug-In . SVG Version: 6.00 Build 0)  -->
<svg version="1.1" id="Livello_1" xmlns="http://www.w3.org/2000/svg" xmlns:xlink="http://www.w3.org/1999/xlink" x="0px" y="0px"
	 width="492px" height="188px" viewBox="0 0 492 188" style="enable-background:new 0 0 492 188;" xml:space="preserve">
<style type="text/css">
	.st0{fill:#E73B51;}
	.st1{fill:#FFFFFF;}
</style>
<rect x="229.5" y="-233" transform="matrix(6.123234e-17 -1 1 6.123234e-17 229.466 260.7987)" class="st0" width="31.3" height="497.3"/>
<rect x="229.5" y="-107.6" transform="matrix(6.123234e-17 -1 1 6.123234e-17 104.1353 386.1295)" class="st0" width="31.3" height="497.3"/>
<rect x="229.5" y="-201.6" transform="matrix(6.123234e-17 -1 1 6.123234e-17 198.1334 292.1314)" class="st1" width="31.3" height="497.3"/>
<rect x="229.5" y="-170.3" transform="matrix(6.123234e-17 -1 1 6.123234e-17 166.8007 323.4641)" class="st0" width="31.3" height="497.3"/>
<rect x="229.5" y="-139" transform="matrix(6.123234e-17 -1 1 6.123234e-17 135.468 354.7968)" class="st1" width="31.3" height="497.3"/>
<rect x="229.5" y="-76.3" transform="matrix(6.123234e-17 -1 1 6.123234e-17 72.8027 417.4621)" class="st1" width="31.3" height="497.3"/>
</svg>
